<svg xmlns="http://www.w3.org/2000/svg" width="32" height="32" viewBox="0 0 32 32"><g class="nc-icon-wrapper"><rect x="1" y="4" width="30" height="24" rx="4" ry="4" fill="#f8d147"></rect><rect x="3.5" y="6.5" width="4.5" height="19" fill="#1a7a4a"></rect><rect x="8" y="6.5" width="4.5" height="19" fill="#e8842c"></rect><rect x="14.5" y="6.5" width="14" height="19" fill="#7b1f3f"></rect><path d="M27,4H5c-2.209,0-4,1.791-4,4V24c0,2.209,1.791,4,4,4H27c2.209,0,4-1.791,4-4V8c0-2.209-1.791-4-4-4Zm3,20c0,1.654-1.346,3-3,3H5c-1.654,0-3-1.346-3-3V8c0-1.654,1.346-3,3-3H27c1.654,0,3,1.346,3,3V24Z" opacity=".15"></path><path d="M27,5H5c-1.657,0-3,1.343-3,3v1c0-1.657,1.343-3,3-3H27c1.657,0,3,1.343,3,3v-1c0-1.657-1.343-3-3-3Z" fill="#fff" opacity=".2"></path></g></svg>