<svg xmlns="http://www.w3.org/2000/svg" viewBox="0 0 36 36"><path fill="#1DA1F2" d="M10.478 22.439s.702 2.281-.337 7.993c-.186 1.025-.46 2.072-.599 2.93-1.757 0-1.851 2.002-1.478 2.002h2.094c1.337 0 2.971-3.334 3.854-7.961s-3.534-4.964-3.534-4.964m13.042 3.702s2.272 1.22 2.188 4.081c-.033 1.131-.249 2.091-.355 3.024-1.832 0-1.839 1.985-1.305 1.985h1.856c.923 0 3.001-3.158 3.379-7.281s-5.763-1.809-5.763-1.809"/><path fill="#1DA1F2" d="M36 8.447C36 3.525 31.859 1 27 1a1 1 0 1 0 0 2c1.804 0 6.717.934 6.717 5.447 0 2.881-1.567 5.462-3.77 5.982-.164-.073-.345-.104-.509-.192-7.239-3.917-13.457.902-15.226-.29-1.752-1.182-.539-3.255-2.824-5.243-.33-1.841-1.073-4.477-1.794-4.477-.549 0-1.265 1.825-1.74 3.656-.591-1.381-1.363-2.756-1.86-2.756-.64 0-1.278 2.273-1.594 4.235-1.68 1.147-2.906 2.809-2.906 4.765 0 2.7 4.05 3.357 5.4 3.411s3.023 3.562 3.585 5.072c1.242 4.367 2.051 8.699 2.698 11.183-1.649 0-1.804 2.111-1.348 2.111.713 0 1.953-.003 2.225 0 1.381.014 2.026-4.706 2.026-8.849 0-.212-.011-.627-.011-.627s1.93.505 6.038-.208c2.444-.424 5.03.849 5.746 3.163.527 1.704 1.399 3.305 1.868 4.484-1.589 0-1.545 2.037-1.084 2.037.787 0 1.801.014 2.183 0 1.468-.055.643-7.574 1.03-10.097s1.267-5.578-.229-8.797C34.857 15.236 36 11.505 36 8.447"/><path fill="#1DA1F2" d="M2.984 12.86c-.677.423-.677 1.777-1.015 1.777S.954 13.841.954 12.86c-.001-.981 2.862-.52 2.03 0"/></svg>