<svg xmlns="http://www.w3.org/2000/svg" width="33.033" height="33.215" viewBox="0 0 254.594 256"><g fill="none"><path d="M229.034 96.855s24.428-62.483 11.707-85.074c-4.283-7.608-56.726 14.167-76.034 38.588 0 0-18.336-6.098-37.41-6.098s-37.41 6.098-37.41 6.098C70.577 25.949 18.135 4.173 13.852 11.78 1.133 34.372 25.56 96.855 25.56 96.855c-6.36 12.21-8.743 30.81-11.026 50.77-2.51 21.881 2.481 39.325 4.665 43.175 2.482 4.375 15.054 18.471 31.795 30.532 25.434 18.316 63.582 24.428 76.303 24.428s50.868-6.105 76.303-24.428c16.74-12.061 29.313-26.157 31.794-30.532 2.184-3.85 7.176-21.294 4.673-43.175-2.297-19.954-4.673-38.56-11.033-50.77" fill="#1da1f2"/><path d="M157.872 199.585c-10.147 0-15.415-4.963-19.634-8.955-3.61-3.39-6.219-5.857-11.778-5.857-5.552 0-8.161 2.474-11.763 5.857-4.226 3.992-9.495 8.955-19.634 8.955s-15.394-4.963-19.62-8.955c-3.581-3.383-6.183-5.843-11.686-5.857-3.935.014-6.254 1.205-8.509 2.999a5.743 5.743 0 0 1-7.927-.759 5.32 5.32 0 0 1 .787-7.672 24.1 24.1 0 0 1 15.493-5.467h.312c9.998.071 15.21 4.992 19.4 8.949 3.602 3.403 6.205 5.857 11.75 5.857 5.559 0 8.168-2.468 11.777-5.857 4.226-3.985 9.488-8.949 19.627-8.949s15.408 4.957 19.641 8.949c3.603 3.396 6.212 5.857 11.771 5.857s8.161-2.468 11.77-5.857c4.234-3.992 9.495-8.949 19.642-8.949 5.878 0 10.756 1.645 15.351 5.155 2.44 1.88 2.836 5.311.915 7.665a5.78 5.78 0 0 1-7.913.887c-1.9-1.454-4.22-2.808-8.346-2.808-5.56 0-8.169 2.474-11.778 5.857-4.24 3.999-9.501 8.955-19.648 8.955m-74.013-53.648c-13.366 0-24.236-10.523-24.236-23.442S70.5 99.046 83.86 99.046c8.24 0 14.933 6.481 14.933 14.451s-6.693 14.45-14.933 14.45a5.53 5.53 0 0 1-5.637-5.452c0-3.013 2.517-5.453 5.637-5.453a3.616 3.616 0 0 0 3.66-3.545c0-1.95-1.639-3.545-3.66-3.545-7.147 0-12.961 5.623-12.961 12.543 0 6.907 5.814 12.537 12.961 12.537 12.274 0 22.258-9.658 22.258-21.535s-9.984-21.534-22.258-21.534c-17.407 0-31.56 13.699-31.56 30.532a5.55 5.55 0 0 1-5.637 5.453 5.55 5.55 0 0 1-5.638-5.453c0-22.853 19.223-41.43 42.835-41.43 18.486 0 33.532 14.542 33.532 32.432s-15.04 32.44-33.532 32.44m85.081 0c-18.492 0-33.531-14.55-33.531-32.44s15.039-32.433 33.531-32.433c13.366 0 24.236 10.516 24.236 23.442 0 12.912-10.87 23.442-24.236 23.442-8.232 0-14.932-6.481-14.932-14.45s6.7-14.452 14.932-14.452c3.106 0 5.638 2.447 5.638 5.46a5.53 5.53 0 0 1-5.638 5.446 3.616 3.616 0 0 0-3.665 3.545c0 1.957 1.652 3.545 3.665 3.545 7.14 0 12.962-5.622 12.962-12.536s-5.814-12.543-12.962-12.543c-12.273 0-22.257 9.657-22.257 21.534s9.984 21.535 22.257 21.535c17.394 0 31.554-13.7 31.554-30.526 0-3.006 2.524-5.453 5.637-5.453 3.106 0 5.637 2.447 5.637 5.453 0 22.846-19.216 41.431-42.828 41.431" fill="#fff"/></g></svg>